<svg width="18" height="18" viewBox="0 0 18 18" version="1.1" xmlns="http://www.w3.org/2000/svg" xmlns:xlink="http://www.w3.org/1999/xlink" xmlns:figma="http://www.figma.com/figma/ns">
<title>Vector</title>
<desc>Created using Figma</desc>
<g id="Canvas" transform="translate(-529 -12)" figma:type="canvas">
<g id="Vector" style="mix-blend-mode:normal;" figma:type="vector">
<use xlink:href="#path0_stroke" transform="translate(530 13)" fill="#E0E0E0" style="mix-blend-mode:normal;"/>
</g>
</g>
<defs>
<path id="path0_stroke" d="M 0 16L -0.75 16C -0.75 16.4142 -0.414214 16.75 1.66533e-16 16.75L 0 16ZM 16 16L 16 16.75C 16.4142 16.75 16.75 16.4142 16.75 16L 16 16ZM 16 1.33333L 16.75 1.33333C 16.75 0.91912 16.4142 0.583333 16 0.583333L 16 1.33333ZM 0 1.33333L 0 0.583333C -0.414214 0.583333 -0.75 0.91912 -0.75 1.33333L 0 1.33333ZM 2.58333 2.66667C 2.58333 3.08088 2.91912 3.41667 3.33333 3.41667C 3.74755 3.41667 4.08333 3.08088 4.08333 2.66667L 2.58333 2.66667ZM 4.08333 0C 4.08333 -0.414214 3.74755 -0.75 3.33333 -0.75C 2.91912 -0.75 2.58333 -0.414214 2.58333 0L 4.08333 0ZM 11.9167 2.66667C 11.9167 3.08088 12.2525 3.41667 12.6667 3.41667C 13.0809 3.41667 13.4167 3.08088 13.4167 2.66667L 11.9167 2.66667ZM 13.4167 0C 13.4167 -0.414214 13.0809 -0.75 12.6667 -0.75C 12.2525 -0.75 11.9167 -0.414214 11.9167 0L 13.4167 0ZM 8.75 0C 8.75 -0.414214 8.41421 -0.75 8 -0.75C 7.58579 -0.75 7.25 -0.414214 7.25 0L 8.75 0ZM 7.25 2.66667C 7.25 3.08088 7.58579 3.41667 8 3.41667C 8.41421 3.41667 8.75 3.08088 8.75 2.66667L 7.25 2.66667ZM 0 16.75L 16 16.75L 16 15.25L 0 15.25L 0 16.75ZM -0.75 1.33333L -0.75 5.33333L 0.75 5.33333L 0.75 1.33333L -0.75 1.33333ZM -0.75 5.33333L -0.75 16L 0.75 16L 0.75 5.33333L -0.75 5.33333ZM 16.75 16L 16.75 5.33333L 15.25 5.33333L 15.25 16L 16.75 16ZM 16.75 5.33333L 16.75 1.33333L 15.25 1.33333L 15.25 5.33333L 16.75 5.33333ZM 0 6.08333L 16 6.08333L 16 4.58333L 0 4.58333L 0 6.08333ZM 2 0.583333L 0 0.583333L 0 2.08333L 2 2.08333L 2 0.583333ZM 16 0.583333L 14 0.583333L 14 2.08333L 16 2.08333L 16 0.583333ZM 4.08333 2.66667L 4.08333 0L 2.58333 0L 2.58333 2.66667L 4.08333 2.66667ZM 13.4167 2.66667L 13.4167 0L 11.9167 0L 11.9167 2.66667L 13.4167 2.66667ZM 7.25 0L 7.25 2.66667L 8.75 2.66667L 8.75 0L 7.25 0ZM 11.3333 0.583333L 9.33333 0.583333L 9.33333 2.08333L 11.3333 2.08333L 11.3333 0.583333ZM 6.66667 0.583333L 4.66667 0.583333L 4.66667 2.08333L 6.66667 2.08333L 6.66667 0.583333Z"/>
</defs>
</svg>
