<svg width="18" height="18" viewBox="0 0 18 18" version="1.1" xmlns="http://www.w3.org/2000/svg" xmlns:xlink="http://www.w3.org/1999/xlink" xmlns:figma="http://www.figma.com/figma/ns">
<title>Vector 13</title>
<desc>Created using Figma</desc>
<g id="Canvas" transform="translate(3450 1760)" figma:type="canvas">
<g id="Vector 13" style="mix-blend-mode:normal;" figma:type="vector">
<use xlink:href="#path0_stroke" transform="translate(-3449 -1759)" fill="#101010" style="mix-blend-mode:normal;"/>
</g>
</g>
<defs>
<path id="path0_stroke" d="M 0.53033 9.37443C 0.237437 9.08154 -0.237437 9.08154 -0.53033 9.37443C -0.823223 9.66733 -0.823223 10.1422 -0.53033 10.4351L 0.53033 9.37443ZM 6.09524 16L 5.56491 16.5303C 5.72692 16.6923 5.95411 16.7714 6.1817 16.745C 6.4093 16.7186 6.61234 16.5896 6.73294 16.3948L 6.09524 16ZM 16.6377 0.394766C 16.8557 0.0425746 16.747 -0.419676 16.3948 -0.637699C 16.0426 -0.855722 15.5803 -0.746957 15.3623 -0.394766L 16.6377 0.394766ZM -0.53033 10.4351L 5.56491 16.5303L 6.62557 15.4697L 0.53033 9.37443L -0.53033 10.4351ZM 6.73294 16.3948L 16.6377 0.394766L 15.3623 -0.394766L 5.45754 15.6052L 6.73294 16.3948Z"/>
</defs>
</svg>
