<svg width="26" height="26" viewBox="0 0 26 26" version="1.1" xmlns="http://www.w3.org/2000/svg" xmlns:xlink="http://www.w3.org/1999/xlink" xmlns:figma="http://www.figma.com/figma/ns">
<title>Vector 15</title>
<desc>Created using Figma</desc>
<g id="Canvas" transform="translate(3444 1623)" figma:type="canvas">
<g id="Vector 15" style="mix-blend-mode:normal;" figma:type="vector">
<use xlink:href="#path0_stroke" transform="translate(-3443 -1622)" fill="#101010" style="mix-blend-mode:normal;"/>
</g>
</g>
<defs>
<path id="path0_stroke" d="M 12.7071 -0.707107C 12.3166 -1.09763 11.6834 -1.09763 11.2929 -0.707107C 10.9024 -0.316582 10.9024 0.316582 11.2929 0.707107L 12.7071 -0.707107ZM 11.2929 23.2929C 10.9024 23.6834 10.9024 24.3166 11.2929 24.7071C 11.6834 25.0976 12.3166 25.0976 12.7071 24.7071L 11.2929 23.2929ZM 24 12L 24.7071 12.7071C 25.0976 12.3166 25.0976 11.6834 24.7071 11.2929L 24 12ZM 0 11C -0.552285 11 -1 11.4477 -1 12C -1 12.5523 -0.552285 13 0 13L 0 11ZM 12.7071 24.7071L 24.7071 12.7071L 23.2929 11.2929L 11.2929 23.2929L 12.7071 24.7071ZM 24.7071 11.2929L 12.7071 -0.707107L 11.2929 0.707107L 23.2929 12.7071L 24.7071 11.2929ZM 24 11L 0 11L 0 13L 24 13L 24 11Z"/>
</defs>
</svg>
