<svg width="18" height="17" viewBox="0 0 18 17" version="1.1" xmlns="http://www.w3.org/2000/svg" xmlns:xlink="http://www.w3.org/1999/xlink" xmlns:figma="http://www.figma.com/figma/ns">
<title>Vector 12</title>
<desc>Created using Figma</desc>
<g id="Canvas" transform="translate(3450 1685)" figma:type="canvas">
<g id="Vector 12" style="mix-blend-mode:normal;" figma:type="vector">
<use xlink:href="#path0_stroke" transform="translate(-3449 -1684)" fill="#101010" style="mix-blend-mode:normal;"/>
</g>
</g>
<defs>
<path id="path0_stroke" d="M 0 14.6667L -0.75 14.6667L -0.75 15.4167L 0 15.4167L 0 14.6667ZM 16 14.6667L 16 15.4167L 16.75 15.4167L 16.75 14.6667L 16 14.6667ZM 0 8L -0.67082 7.66459C -0.722891 7.76873 -0.75 7.88357 -0.75 8L 0 8ZM 2.66667 10.6667L 2.66667 9.91667L 1.91667 9.91667L 1.91667 10.6667L 2.66667 10.6667ZM 5.33333 10.6667L 6.08333 10.6667L 6.08333 9.91667L 5.33333 9.91667L 5.33333 10.6667ZM 10.6667 10.6667L 10.6667 9.91667L 9.91667 9.91667L 9.91667 10.6667L 10.6667 10.6667ZM 13.3333 10.6667L 14.0833 10.6667L 14.0833 9.91667L 13.3333 9.91667L 13.3333 10.6667ZM 1.33333 5.33333L 1.33333 4.58333C 1.04925 4.58333 0.789557 4.74384 0.662513 4.99792L 1.33333 5.33333ZM 16 0L 16.75 0C 16.75 -0.414214 16.4142 -0.75 16 -0.75L 16 0ZM 8 0L 8 -0.75C 7.58579 -0.75 7.25 -0.414214 7.25 1.66533e-16L 8 0ZM -0.75 8L -0.75 14.6667L 0.75 14.6667L 0.75 8L -0.75 8ZM 0 15.4167L 2.66667 15.4167L 2.66667 13.9167L 0 13.9167L 0 15.4167ZM 3.41667 14.6667L 3.41667 10.6667L 1.91667 10.6667L 1.91667 14.6667L 3.41667 14.6667ZM 2.66667 11.4167L 5.33333 11.4167L 5.33333 9.91667L 2.66667 9.91667L 2.66667 11.4167ZM 5.33333 15.4167L 8 15.4167L 8 13.9167L 5.33333 13.9167L 5.33333 15.4167ZM 4.58333 10.6667L 4.58333 14.6667L 6.08333 14.6667L 6.08333 10.6667L 4.58333 10.6667ZM 8 15.4167L 10.6667 15.4167L 10.6667 13.9167L 8 13.9167L 8 15.4167ZM 11.4167 14.6667L 11.4167 10.6667L 9.91667 10.6667L 9.91667 14.6667L 11.4167 14.6667ZM 10.6667 11.4167L 13.3333 11.4167L 13.3333 9.91667L 10.6667 9.91667L 10.6667 11.4167ZM 13.3333 15.4167L 16 15.4167L 16 13.9167L 13.3333 13.9167L 13.3333 15.4167ZM 12.5833 10.6667L 12.5833 14.6667L 14.0833 14.6667L 14.0833 10.6667L 12.5833 10.6667ZM 8.75 14.6667L 8.75 8L 7.25 8L 7.25 14.6667L 8.75 14.6667ZM 0.67082 8.33541L 2.00415 5.66874L 0.662513 4.99792L -0.67082 7.66459L 0.67082 8.33541ZM 8.75 8L 8.75 5.33333L 7.25 5.33333L 7.25 8L 8.75 8ZM -0.33541 8.67082C 0.256309 8.96668 0.77938 9.25 1.33333 9.25C 1.88729 9.25 2.41036 8.96668 3.00208 8.67082L 2.33126 7.32918C 1.58964 7.69999 1.44605 7.75 1.33333 7.75C 1.22062 7.75 1.07702 7.69999 0.33541 7.32918L -0.33541 8.67082ZM 2.33126 8.67082C 2.92298 8.96668 3.44605 9.25 4 9.25C 4.55395 9.25 5.07702 8.96668 5.66874 8.67082L 4.99792 7.32918C 4.25631 7.69999 4.11271 7.75 4 7.75C 3.88729 7.75 3.74369 7.69999 3.00208 7.32918L 2.33126 8.67082ZM 4.99792 8.67082C 5.58964 8.96668 6.11271 9.25 6.66667 9.25C 7.22062 9.25 7.74369 8.96668 8.33541 8.67082L 7.66459 7.32918C 6.92298 7.69999 6.77938 7.75 6.66667 7.75C 6.55395 7.75 6.41036 7.69999 5.66874 7.32918L 4.99792 8.67082ZM 5.33333 6.08333L 8 6.08333L 8 4.58333L 5.33333 4.58333L 5.33333 6.08333ZM 6.08333 8L 6.08333 5.33333L 4.58333 5.33333L 4.58333 8L 6.08333 8ZM 1.33333 6.08333L 3.33333 6.08333L 3.33333 4.58333L 1.33333 4.58333L 1.33333 6.08333ZM 3.33333 6.08333L 5.33333 6.08333L 5.33333 4.58333L 3.33333 4.58333L 3.33333 6.08333ZM 3.39427 8.1819L 4.06094 5.51524L 2.60573 5.15143L 1.93906 7.8181L 3.39427 8.1819ZM 16.75 14.6667L 16.75 8L 15.25 8L 15.25 14.6667L 16.75 14.6667ZM 16.75 8L 16.75 0L 15.25 0L 15.25 8L 16.75 8ZM 16 -0.75L 8 -0.75L 8 0.75L 16 0.75L 16 -0.75ZM 7.25 0L 7.25 5.33333L 8.75 5.33333L 8.75 0L 7.25 0ZM 11.4167 8.66667L 11.4167 7.33333L 9.91667 7.33333L 9.91667 8.66667L 11.4167 8.66667ZM 14.0833 8.66667L 14.0833 7.33333L 12.5833 7.33333L 12.5833 8.66667L 14.0833 8.66667ZM 14.0833 6L 14.0833 4.66667L 12.5833 4.66667L 12.5833 6L 14.0833 6ZM 11.4167 6L 11.4167 4.66667L 9.91667 4.66667L 9.91667 6L 11.4167 6ZM 11.4167 3.33333L 11.4167 2L 9.91667 2L 9.91667 3.33333L 11.4167 3.33333ZM 14.0833 3.33333L 14.0833 2L 12.5833 2L 12.5833 3.33333L 14.0833 3.33333ZM 13.3333 13.9167L 10.6667 13.9167L 10.6667 15.4167L 13.3333 15.4167L 13.3333 13.9167ZM 5.33333 13.9167L 2.66667 13.9167L 2.66667 15.4167L 5.33333 15.4167L 5.33333 13.9167Z"/>
</defs>
</svg>
