<svg width="17" height="18" viewBox="0 0 17 18" version="1.1" xmlns="http://www.w3.org/2000/svg" xmlns:xlink="http://www.w3.org/1999/xlink" xmlns:figma="http://www.figma.com/figma/ns">
<title>Vector 3</title>
<desc>Created using Figma</desc>
<g id="Canvas" transform="translate(-529 -428)" figma:type="canvas">
<g id="Vector 3" style="mix-blend-mode:normal;" figma:type="vector">
<use xlink:href="#path0_fill" transform="translate(530 429)" fill="#E0E0E0" style="mix-blend-mode:normal;"/>
<use xlink:href="#path1_stroke" transform="translate(530 429)" fill="#E0E0E0" style="mix-blend-mode:normal;"/>
</g>
</g>
<defs>
<path id="path0_fill" d="M 0 6.66667L 2.66667 6.66667L 2.66667 9.33333L 0 9.33333L 0 6.66667Z"/>
<path id="path1_stroke" d="M 0 0L 0 -0.75L -0.75 -0.75L -0.75 0L 0 0ZM 0 2.66667L -0.75 2.66667L -0.75 3.41667L 0 3.41667L 0 2.66667ZM 2.66667 2.66667L 2.66667 3.41667L 3.41667 3.41667L 3.41667 2.66667L 2.66667 2.66667ZM 2.66667 0L 3.41667 0L 3.41667 -0.75L 2.66667 -0.75L 2.66667 0ZM 0 6.66667L 0 5.91667L -0.75 5.91667L -0.75 6.66667L 0 6.66667ZM 2.66667 6.66667L 3.41667 6.66667L 3.41667 5.91667L 2.66667 5.91667L 2.66667 6.66667ZM 2.66667 9.33333L 2.66667 10.0833L 3.41667 10.0833L 3.41667 9.33333L 2.66667 9.33333ZM 0 9.33333L -0.75 9.33333L -0.75 10.0833L 0 10.0833L 0 9.33333ZM 0 16L -0.75 16L -0.75 16.75L 0 16.75L 0 16ZM 2.66667 16L 2.66667 16.75L 3.41667 16.75L 3.41667 16L 2.66667 16ZM 2.66667 13.3333L 3.41667 13.3333L 3.41667 12.5833L 2.66667 12.5833L 2.66667 13.3333ZM 0 13.3333L 0 12.5833L -0.75 12.5833L -0.75 13.3333L 0 13.3333ZM -0.75 0L -0.75 2.66667L 0.75 2.66667L 0.75 0L -0.75 0ZM 0 3.41667L 2.66667 3.41667L 2.66667 1.91667L 0 1.91667L 0 3.41667ZM 3.41667 2.66667L 3.41667 0L 1.91667 0L 1.91667 2.66667L 3.41667 2.66667ZM 2.66667 -0.75L 0 -0.75L 0 0.75L 2.66667 0.75L 2.66667 -0.75ZM 0 7.41667L 2.66667 7.41667L 2.66667 5.91667L 0 5.91667L 0 7.41667ZM 1.91667 6.66667L 1.91667 9.33333L 3.41667 9.33333L 3.41667 6.66667L 1.91667 6.66667ZM 2.66667 8.58333L 0 8.58333L 0 10.0833L 2.66667 10.0833L 2.66667 8.58333ZM 0.75 9.33333L 0.75 6.66667L -0.75 6.66667L -0.75 9.33333L 0.75 9.33333ZM 0 16.75L 2.66667 16.75L 2.66667 15.25L 0 15.25L 0 16.75ZM 3.41667 16L 3.41667 13.3333L 1.91667 13.3333L 1.91667 16L 3.41667 16ZM 2.66667 12.5833L 0 12.5833L 0 14.0833L 2.66667 14.0833L 2.66667 12.5833ZM -0.75 13.3333L -0.75 16L 0.75 16L 0.75 13.3333L -0.75 13.3333ZM 5.33333 0.75L 16 0.75L 16 -0.75L 5.33333 -0.75L 5.33333 0.75ZM 5.33333 3.41667L 12 3.41667L 12 1.91667L 5.33333 1.91667L 5.33333 3.41667ZM 5.33333 7.41667L 14.6667 7.41667L 14.6667 5.91667L 5.33333 5.91667L 5.33333 7.41667ZM 5.33333 10.0833L 14 10.0833L 14 8.58333L 5.33333 8.58333L 5.33333 10.0833ZM 5.33333 14.0833L 16 14.0833L 16 12.5833L 5.33333 12.5833L 5.33333 14.0833ZM 5.33333 16.75L 14.6667 16.75L 14.6667 15.25L 5.33333 15.25L 5.33333 16.75Z"/>
</defs>
</svg>
