<svg width="18" height="18" viewBox="0 0 18 18" version="1.1" xmlns="http://www.w3.org/2000/svg" xmlns:xlink="http://www.w3.org/1999/xlink" xmlns:figma="http://www.figma.com/figma/ns">
<title>Vector 2</title>
<desc>Created using Figma</desc>
<g id="Canvas" transform="translate(-529 -340)" figma:type="canvas">
<g id="Vector 2" style="mix-blend-mode:normal;" figma:type="vector">
<use xlink:href="#path0_stroke" transform="translate(530 341)" fill="#E0E0E0" style="mix-blend-mode:normal;"/>
</g>
</g>
<defs>
<path id="path0_stroke" d="M 4 0L 4 -0.75C 3.58579 -0.75 3.25 -0.414214 3.25 1.66533e-16L 4 0ZM 4 4L 3.25 4C 3.25 4.41421 3.58579 4.75 4 4.75L 4 4ZM 12 4L 12 4.75C 12.4142 4.75 12.75 4.41421 12.75 4L 12 4ZM 12 0L 12.75 0C 12.75 -0.414214 12.4142 -0.75 12 -0.75L 12 0ZM 1.33333 8L 1.33333 7.25C 0.91912 7.25 0.583333 7.58579 0.583333 8L 1.33333 8ZM 14.6667 8L 15.4167 8C 15.4167 7.58579 15.0809 7.25 14.6667 7.25L 14.6667 8ZM 0 12L 0 11.25C -0.414214 11.25 -0.75 11.5858 -0.75 12L 0 12ZM 0 16L -0.75 16C -0.75 16.4142 -0.414214 16.75 1.66533e-16 16.75L 0 16ZM 2.66667 16L 2.66667 16.75C 3.08088 16.75 3.41667 16.4142 3.41667 16L 2.66667 16ZM 2.66667 12L 3.41667 12C 3.41667 11.5858 3.08088 11.25 2.66667 11.25L 2.66667 12ZM 6.66667 12L 6.66667 11.25C 6.25245 11.25 5.91667 11.5858 5.91667 12L 6.66667 12ZM 9.33333 12L 10.0833 12C 10.0833 11.5858 9.74755 11.25 9.33333 11.25L 9.33333 12ZM 9.33333 16L 9.33333 16.75C 9.74755 16.75 10.0833 16.4142 10.0833 16L 9.33333 16ZM 6.66667 16L 5.91667 16C 5.91667 16.4142 6.25245 16.75 6.66667 16.75L 6.66667 16ZM 16 12L 16.75 12C 16.75 11.5858 16.4142 11.25 16 11.25L 16 12ZM 16 16L 16 16.75C 16.4142 16.75 16.75 16.4142 16.75 16L 16 16ZM 13.3333 16L 12.5833 16C 12.5833 16.4142 12.9191 16.75 13.3333 16.75L 13.3333 16ZM 13.3333 12L 13.3333 11.25C 12.9191 11.25 12.5833 11.5858 12.5833 12L 13.3333 12ZM 3.25 0L 3.25 4L 4.75 4L 4.75 0L 3.25 0ZM 4 4.75L 12 4.75L 12 3.25L 4 3.25L 4 4.75ZM 12.75 4L 12.75 0L 11.25 0L 11.25 4L 12.75 4ZM 12 -0.75L 4 -0.75L 4 0.75L 12 0.75L 12 -0.75ZM 7.25 5.33333L 7.25 8L 8.75 8L 8.75 5.33333L 7.25 5.33333ZM 8 7.25L 1.33333 7.25L 1.33333 8.75L 8 8.75L 8 7.25ZM 0.583333 8L 0.583333 10.6667L 2.08333 10.6667L 2.08333 8L 0.583333 8ZM 8 8.75L 14.6667 8.75L 14.6667 7.25L 8 7.25L 8 8.75ZM 13.9167 8L 13.9167 10.6667L 15.4167 10.6667L 15.4167 8L 13.9167 8ZM 7.25 8L 7.25 10.6667L 8.75 10.6667L 8.75 8L 7.25 8ZM -0.75 12L -0.75 16L 0.75 16L 0.75 12L -0.75 12ZM 0 16.75L 2.66667 16.75L 2.66667 15.25L 0 15.25L 0 16.75ZM 3.41667 16L 3.41667 12L 1.91667 12L 1.91667 16L 3.41667 16ZM 2.66667 11.25L 0 11.25L 0 12.75L 2.66667 12.75L 2.66667 11.25ZM 6.66667 12.75L 9.33333 12.75L 9.33333 11.25L 6.66667 11.25L 6.66667 12.75ZM 8.58333 12L 8.58333 16L 10.0833 16L 10.0833 12L 8.58333 12ZM 9.33333 15.25L 6.66667 15.25L 6.66667 16.75L 9.33333 16.75L 9.33333 15.25ZM 7.41667 16L 7.41667 12L 5.91667 12L 5.91667 16L 7.41667 16ZM 15.25 12L 15.25 16L 16.75 16L 16.75 12L 15.25 12ZM 16 15.25L 13.3333 15.25L 13.3333 16.75L 16 16.75L 16 15.25ZM 14.0833 16L 14.0833 12L 12.5833 12L 12.5833 16L 14.0833 16ZM 13.3333 12.75L 16 12.75L 16 11.25L 13.3333 11.25L 13.3333 12.75Z"/>
</defs>
</svg>
